<mxfile host="app.diagrams.net" agent="Mozilla/5.0 (Windows NT 10.0; Win64; x64) AppleWebKit/537.36 (KHTML, like Gecko) Chrome/128.0.0.0 Safari/537.36" version="24.7.7">
  <diagram name="Page-1" id="KxmcWkSFAbx11SDatw0X">
    <mxGraphModel dx="2284" dy="4039" grid="1" gridSize="10" guides="1" tooltips="1" connect="1" arrows="1" fold="1" page="1" pageScale="1" pageWidth="850" pageHeight="1100" math="0" shadow="0">
      <root>
        <mxCell id="0" />
        <mxCell id="1" parent="0" />
        <mxCell id="-AlGcr24Wz5jb8KWRFyv-1" value="&lt;span style=&quot;font-size: 14px;&quot;&gt;Production&lt;/span&gt;" style="ellipse;whiteSpace=wrap;html=1;aspect=fixed;fillColor=#d5e8d4;strokeColor=#82b366;" vertex="1" parent="1">
          <mxGeometry x="-655" y="-3280" width="100" height="100" as="geometry" />
        </mxCell>
        <mxCell id="-AlGcr24Wz5jb8KWRFyv-2" value="&lt;span style=&quot;font-size: 14px;&quot;&gt;Development&lt;/span&gt;" style="ellipse;whiteSpace=wrap;html=1;aspect=fixed;fillColor=#e1d5e7;strokeColor=#9673a6;" vertex="1" parent="1">
          <mxGeometry x="-500" y="-3170" width="100" height="100" as="geometry" />
        </mxCell>
        <mxCell id="-AlGcr24Wz5jb8KWRFyv-3" value="&lt;span style=&quot;font-size: 14px;&quot;&gt;Features&lt;/span&gt;" style="ellipse;whiteSpace=wrap;html=1;aspect=fixed;fillColor=#fff2cc;strokeColor=#d6b656;" vertex="1" parent="1">
          <mxGeometry x="-550" y="-2995" width="100" height="100" as="geometry" />
        </mxCell>
        <mxCell id="-AlGcr24Wz5jb8KWRFyv-4" value="&lt;span style=&quot;font-size: 14px;&quot;&gt;Testing&lt;/span&gt;" style="ellipse;whiteSpace=wrap;html=1;aspect=fixed;fillColor=#ffe6cc;strokeColor=#d79b00;" vertex="1" parent="1">
          <mxGeometry x="-760" y="-2995" width="100" height="100" as="geometry" />
        </mxCell>
        <mxCell id="-AlGcr24Wz5jb8KWRFyv-5" value="&lt;span style=&quot;font-size: 14px;&quot;&gt;Staging&lt;/span&gt;" style="ellipse;whiteSpace=wrap;html=1;aspect=fixed;fillColor=#dae8fc;strokeColor=#6c8ebf;" vertex="1" parent="1">
          <mxGeometry x="-810" y="-3170" width="100" height="100" as="geometry" />
        </mxCell>
        <mxCell id="-AlGcr24Wz5jb8KWRFyv-6" value="" style="curved=1;endArrow=classic;html=1;rounded=0;elbow=vertical;entryX=0.282;entryY=0.063;entryDx=0;entryDy=0;entryPerimeter=0;strokeWidth=2;dashed=1;" edge="1" parent="1" target="-AlGcr24Wz5jb8KWRFyv-2">
          <mxGeometry width="50" height="50" relative="1" as="geometry">
            <mxPoint x="-555" y="-3227" as="sourcePoint" />
            <mxPoint x="-505" y="-3277" as="targetPoint" />
            <Array as="points">
              <mxPoint x="-530" y="-3220" />
              <mxPoint x="-490" y="-3190" />
            </Array>
          </mxGeometry>
        </mxCell>
        <mxCell id="-AlGcr24Wz5jb8KWRFyv-7" value="" style="curved=1;endArrow=classic;html=1;rounded=0;elbow=vertical;entryX=0.918;entryY=0.776;entryDx=0;entryDy=0;entryPerimeter=0;strokeWidth=2;dashed=1;" edge="1" parent="1">
          <mxGeometry width="50" height="50" relative="1" as="geometry">
            <mxPoint x="-445" y="-3070" as="sourcePoint" />
            <mxPoint x="-471.24" y="-2986.68" as="targetPoint" />
            <Array as="points">
              <mxPoint x="-446" y="-3049" />
              <mxPoint x="-453" y="-3024" />
              <mxPoint x="-463" y="-3001" />
            </Array>
          </mxGeometry>
        </mxCell>
        <mxCell id="-AlGcr24Wz5jb8KWRFyv-8" value="" style="curved=1;endArrow=classic;html=1;rounded=0;elbow=vertical;entryX=0.451;entryY=1.001;entryDx=0;entryDy=0;entryPerimeter=0;strokeWidth=2;dashed=1;" edge="1" parent="1" target="-AlGcr24Wz5jb8KWRFyv-5">
          <mxGeometry width="50" height="50" relative="1" as="geometry">
            <mxPoint x="-738" y="-2987" as="sourcePoint" />
            <mxPoint x="-854" y="-2986" as="targetPoint" />
            <Array as="points">
              <mxPoint x="-750" y="-3005" />
              <mxPoint x="-756" y="-3022" />
              <mxPoint x="-762" y="-3043" />
            </Array>
          </mxGeometry>
        </mxCell>
        <mxCell id="-AlGcr24Wz5jb8KWRFyv-9" value="" style="curved=1;endArrow=classic;html=1;rounded=0;elbow=vertical;entryX=0.344;entryY=0.026;entryDx=0;entryDy=0;entryPerimeter=0;strokeWidth=2;dashed=1;" edge="1" parent="1">
          <mxGeometry width="50" height="50" relative="1" as="geometry">
            <mxPoint x="-738" y="-3165" as="sourcePoint" />
            <mxPoint x="-654.9200000000001" y="-3226.6800000000003" as="targetPoint" />
            <Array as="points">
              <mxPoint x="-721" y="-3187" />
              <mxPoint x="-712" y="-3194" />
              <mxPoint x="-702" y="-3203" />
              <mxPoint x="-676" y="-3219" />
            </Array>
          </mxGeometry>
        </mxCell>
        <mxCell id="-AlGcr24Wz5jb8KWRFyv-10" value="" style="curved=1;endArrow=none;html=1;rounded=0;elbow=vertical;entryX=0.025;entryY=0.686;entryDx=0;entryDy=0;entryPerimeter=0;endFill=0;startArrow=classic;startFill=1;strokeWidth=2;dashed=1;" edge="1" parent="1">
          <mxGeometry width="50" height="50" relative="1" as="geometry">
            <mxPoint x="-662.75" y="-2927" as="sourcePoint" />
            <mxPoint x="-547.25" y="-2926.4" as="targetPoint" />
            <Array as="points">
              <mxPoint x="-631.75" y="-2916" />
              <mxPoint x="-619.75" y="-2913" />
              <mxPoint x="-581" y="-2912" />
            </Array>
          </mxGeometry>
        </mxCell>
      </root>
    </mxGraphModel>
  </diagram>
</mxfile>
